<?xml version="1.0" encoding="UTF-8" standalone="no"?>
<!-- Created with Inkscape (http://www.inkscape.org/) -->

<svg
   xmlns:dc="http://purl.org/dc/elements/1.1/"
   xmlns:cc="http://creativecommons.org/ns#"
   xmlns:rdf="http://www.w3.org/1999/02/22-rdf-syntax-ns#"
   xmlns:svg="http://www.w3.org/2000/svg"
   xmlns="http://www.w3.org/2000/svg"
   xmlns:sodipodi="http://sodipodi.sourceforge.net/DTD/sodipodi-0.dtd"
   xmlns:inkscape="http://www.inkscape.org/namespaces/inkscape"
   width="16"
   height="16"
   viewBox="0 0 16 16"
   id="svg4198"
   version="1.1"
   inkscape:version="0.91 r13725"
   sodipodi:docname="action-delete-buddies.svg">
  <defs
     id="defs4200" />
  <sodipodi:namedview
     id="base"
     pagecolor="#ffffff"
     bordercolor="#666666"
     borderopacity="1.0"
     inkscape:pageopacity="0.0"
     inkscape:pageshadow="2"
     inkscape:zoom="7.9195959"
     inkscape:cx="1.8562008"
     inkscape:cy="-5.5238161"
     inkscape:document-units="px"
     inkscape:current-layer="layer1"
     showgrid="false"
     units="px"
     inkscape:window-width="1366"
     inkscape:window-height="709"
     inkscape:window-x="0"
     inkscape:window-y="26"
     inkscape:window-maximized="1" />
  <metadata
     id="metadata4203">
    <rdf:RDF>
      <cc:Work
         rdf:about="">
        <dc:format>image/svg+xml</dc:format>
        <dc:type
           rdf:resource="http://purl.org/dc/dcmitype/StillImage" />
        <dc:title></dc:title>
      </cc:Work>
    </rdf:RDF>
  </metadata>
  <g
     inkscape:label="Layer 1"
     inkscape:groupmode="layer"
     id="layer1"
     transform="translate(0,-1036.3622)">
    <g
       transform="matrix(0.00903133,0,0,-0.00903133,1.6419437,1050.1423)"
       id="g3743"
       style="fill:#000000;fill-opacity:1;stroke:none;stroke-opacity:1">
      <path
         d="m 512,800 0,-576 q 0,-14 -9,-23 -9,-9 -23,-9 l -64,0 q -14,0 -23,9 -9,9 -9,23 l 0,576 q 0,14 9,23 9,9 23,9 l 64,0 q 14,0 23,-9 9,-9 9,-23 z m 256,0 0,-576 q 0,-14 -9,-23 -9,-9 -23,-9 l -64,0 q -14,0 -23,9 -9,9 -9,23 l 0,576 q 0,14 9,23 9,9 23,9 l 64,0 q 14,0 23,-9 9,-9 9,-23 z m 256,0 0,-576 q 0,-14 -9,-23 -9,-9 -23,-9 l -64,0 q -14,0 -23,9 -9,9 -9,23 l 0,576 q 0,14 9,23 9,9 23,9 l 64,0 q 14,0 23,-9 9,-9 9,-23 z m 128,-724 0,948 -896,0 0,-948 Q 256,54 263,35.5 270,17 277.5,8.5 285,0 288,0 l 832,0 q 3,0 10.5,8.5 7.5,8.5 14.5,27 7,18.5 7,40.5 z m -672,1076 448,0 -48,117 q -7,9 -17,11 l -317,0 q -10,-2 -17,-11 z m 928,-32 0,-64 q 0,-14 -9,-23 -9,-9 -23,-9 l -96,0 0,-948 q 0,-83 -47,-143.5 -47,-60.5 -113,-60.5 l -832,0 q -66,0 -113,58.5 Q 128,-11 128,72 l 0,952 -96,0 q -14,0 -23,9 -9,9 -9,23 l 0,64 q 0,14 9,23 9,9 23,9 l 309,0 70,167 q 15,37 54,63 39,26 79,26 l 320,0 q 40,0 79,-26 39,-26 54,-63 l 70,-167 309,0 q 14,0 23,-9 9,-9 9,-23 z"
         id="path3745"
         inkscape:connector-curvature="0"
         style="fill:#000000;fill-opacity:1;stroke:none;stroke-opacity:1" />
    </g>
  </g>
</svg>
