<?xml version="1.0" encoding="UTF-8" standalone="no"?>
<!-- Generator: Adobe Illustrator 18.1.1, SVG Export Plug-In . SVG Version: 6.00 Build 0)  -->

<svg
   xmlns:dc="http://purl.org/dc/elements/1.1/"
   xmlns:cc="http://creativecommons.org/ns#"
   xmlns:rdf="http://www.w3.org/1999/02/22-rdf-syntax-ns#"
   xmlns:svg="http://www.w3.org/2000/svg"
   xmlns="http://www.w3.org/2000/svg"
   xmlns:sodipodi="http://sodipodi.sourceforge.net/DTD/sodipodi-0.dtd"
   xmlns:inkscape="http://www.inkscape.org/namespaces/inkscape"
   version="1.1"
   id="Capa_1"
   x="0px"
   y="0px"
   viewBox="0 0 16 16"
   xml:space="preserve"
   inkscape:version="0.91 r13725"
   sodipodi:docname="action-screensharing.svg"
   width="16"
   height="16"><metadata
     id="metadata4239"><rdf:RDF><cc:Work
         rdf:about=""><dc:format>image/svg+xml</dc:format><dc:type
           rdf:resource="http://purl.org/dc/dcmitype/StillImage" /><dc:title></dc:title></cc:Work></rdf:RDF></metadata><defs
     id="defs4237" /><sodipodi:namedview
     pagecolor="#ffffff"
     bordercolor="#666666"
     borderopacity="1"
     objecttolerance="10"
     gridtolerance="10"
     guidetolerance="10"
     inkscape:pageopacity="0"
     inkscape:pageshadow="2"
     inkscape:window-width="1366"
     inkscape:window-height="709"
     id="namedview4235"
     showgrid="false"
     inkscape:zoom="24.218407"
     inkscape:cx="7.453962"
     inkscape:cy="5.7994776"
     inkscape:window-x="0"
     inkscape:window-y="26"
     inkscape:window-maximized="1"
     inkscape:current-layer="Capa_1" /><g
     id="g4205"
     transform="translate(0,-16)" /><g
     id="g4207"
     transform="translate(0,-16)" /><g
     id="g4209"
     transform="translate(0,-16)" /><g
     id="g4211"
     transform="translate(0,-16)" /><g
     id="g4213"
     transform="translate(0,-16)" /><g
     id="g4215"
     transform="translate(0,-16)" /><g
     id="g4217"
     transform="translate(0,-16)" /><g
     id="g4219"
     transform="translate(0,-16)" /><g
     id="g4221"
     transform="translate(0,-16)" /><g
     id="g4223"
     transform="translate(0,-16)" /><g
     id="g4225"
     transform="translate(0,-16)" /><g
     id="g4227"
     transform="translate(0,-16)" /><g
     id="g4229"
     transform="translate(0,-16)" /><g
     id="g4231"
     transform="translate(0,-16)" /><g
     id="g4233"
     transform="translate(0,-16)" /><g
     id="g4272"><path
       sodipodi:nodetypes="ssssccccssssccccssssssssssss"
       inkscape:connector-curvature="0"
       id="path4203"
       d="m 14.197696,0.84928897 -12.3953922,0 c -0.7899678,0 -1.43023757,0.63979293 -1.43023757,1.43023753 l 0,9.5349165 c 0,0.788539 0.63788607,1.427377 1.42547007,1.429285 l 4.772226,0 0,0.580199 -2.9758477,0.386642 c -0.2126286,0.05291 -0.3613733,0.244093 -0.3613733,0.463396 0,0.263641 0.2131054,0.476746 0.4767459,0.476746 l 8.5814248,0 c 0.263641,0 0.476747,-0.213105 0.476747,-0.476746 0,-0.218827 -0.149221,-0.409525 -0.361374,-0.462921 l -2.9758477,-0.387117 0,-0.580199 4.7722267,0 c 0.787584,-0.002 1.42547,-0.640746 1.42547,-1.429285 l 0,-9.5349165 c 0,-0.7899679 -0.640747,-1.43023753 -1.430238,-1.43023753 z M 14.674442,11.814443 c 0,0.262687 -0.214059,0.476746 -0.476746,0.476746 l -12.3953922,0 c -0.2631636,0 -0.4767459,-0.214059 -0.4767459,-0.476746 l 0,-9.5349165 c 0,-0.2631637 0.2135823,-0.4767458 0.4767459,-0.4767458 l 12.3953922,0 c 0.262687,0 0.476746,0.2135821 0.476746,0.4767458 z"
       style="fill:#000000;fill-opacity:1" /><g
       transform="matrix(1.0468582,0,0,1.0468582,-0.37486569,-0.52279248)"
       id="g4264"><g
         id="g4257"
         transform="translate(-1.7363791e-7,-0.6153797)"><g
           id="g4250"><path
             style="fill:none;fill-rule:evenodd;stroke:#000000;stroke-width:1px;stroke-linecap:butt;stroke-linejoin:miter;stroke-opacity:1"
             d="m 5.1031935,7.6592368 c 2.3948726,-1.4038908 3.6748909,-1.321309 5.7807275,0"
             id="path4244"
             inkscape:connector-curvature="0"
             sodipodi:nodetypes="cc" /><path
             sodipodi:nodetypes="cc"
             inkscape:connector-curvature="0"
             id="path4246"
             d="m 4.2677212,6.0823235 c 3.0855814,-1.8087891 4.7347717,-1.7023897 7.4479558,0"
             style="fill:none;fill-rule:evenodd;stroke:#000000;stroke-width:1.2884115px;stroke-linecap:butt;stroke-linejoin:miter;stroke-opacity:1" /><path
             sodipodi:nodetypes="cc"
             inkscape:connector-curvature="0"
             id="path4248"
             d="m 5.824738,9.1337279 c 1.7983513,-1.0542058 2.7595393,-0.9921937 4.340848,0"
             style="fill:none;fill-rule:evenodd;stroke:#000000;stroke-width:0.75091732px;stroke-linecap:butt;stroke-linejoin:miter;stroke-opacity:1" /></g><circle
           r="0.94969076"
           cy="10.590891"
           cx="8"
           id="path4255"
           style="opacity:1;fill:#000000;fill-opacity:1;stroke:none;stroke-width:1.37;stroke-linecap:round;stroke-linejoin:round;stroke-miterlimit:4;stroke-dasharray:none;stroke-dashoffset:0;stroke-opacity:1" /></g></g></g></svg>