<?xml version="1.0" encoding="UTF-8" standalone="no"?>
<!-- Generator: Adobe Illustrator 16.0.4, SVG Export Plug-In . SVG Version: 6.00 Build 0)  -->

<svg
   xmlns:dc="http://purl.org/dc/elements/1.1/"
   xmlns:cc="http://creativecommons.org/ns#"
   xmlns:rdf="http://www.w3.org/1999/02/22-rdf-syntax-ns#"
   xmlns:svg="http://www.w3.org/2000/svg"
   xmlns="http://www.w3.org/2000/svg"
   xmlns:sodipodi="http://sodipodi.sourceforge.net/DTD/sodipodi-0.dtd"
   xmlns:inkscape="http://www.inkscape.org/namespaces/inkscape"
   version="1.1"
   id="Layer_1"
   x="0px"
   y="0px"
   width="200"
   height="150"
   viewBox="0 0 200 150"
   enable-background="new 0 0 87.123 100.87"
   xml:space="preserve"
   inkscape:version="0.91 r13725"
   sodipodi:docname="desktop-notification.svg"
   inkscape:export-filename="/home/remipassmoilesel/projects/www/djoe/var/www/djoe/jsxc/img/newgui/desktop-notification.png"
   inkscape:export-xdpi="90"
   inkscape:export-ydpi="90"><metadata
     id="metadata4267"><rdf:RDF><cc:Work
         rdf:about=""><dc:format>image/svg+xml</dc:format><dc:type
           rdf:resource="http://purl.org/dc/dcmitype/StillImage" /><dc:title></dc:title></cc:Work></rdf:RDF></metadata><defs
     id="defs4265" /><sodipodi:namedview
     pagecolor="#ffffff"
     bordercolor="#666666"
     borderopacity="1"
     objecttolerance="10"
     gridtolerance="10"
     guidetolerance="10"
     inkscape:pageopacity="0"
     inkscape:pageshadow="2"
     inkscape:window-width="1680"
     inkscape:window-height="1017"
     id="namedview4263"
     showgrid="false"
     inkscape:zoom="4"
     inkscape:cx="75.141926"
     inkscape:cy="31.153816"
     inkscape:window-x="1366"
     inkscape:window-y="0"
     inkscape:window-maximized="1"
     inkscape:current-layer="Layer_1" /><text
     xml:space="preserve"
     style="font-style:normal;font-weight:normal;font-size:22.5px;line-height:125%;font-family:sans-serif;letter-spacing:0px;word-spacing:0px;fill:#000000;fill-opacity:1;stroke:none;stroke-width:1px;stroke-linecap:butt;stroke-linejoin:miter;stroke-opacity:1"
     x="13.573205"
     y="164.90392"
     id="text4291"
     sodipodi:linespacing="125%"><tspan
       sodipodi:role="line"
       id="tspan4293"
       x="13.573205"
       y="164.90392" /></text>
<path
     style="fill:#ff89a5;fill-opacity:1"
     d="M 151.49414 40.291016 L 151.49414 91.179688 C 151.49414 95.397751 148.07541 101.33984 143.85547 101.33984 L 78.542969 101.33984 L 78.542969 102.07422 C 78.542969 106.29229 81.961701 109.71094 86.181641 109.71094 L 125.89258 109.71094 L 148.39258 126.04883 L 146.11914 109.71094 L 156.03125 109.71094 C 160.24932 109.71094 163.66992 106.29229 163.66992 102.07422 L 163.66992 47.931641 C 163.66992 43.709824 160.24932 40.291016 156.03125 40.291016 L 151.49414 40.291016 z "
     id="path4344" /><g
     transform="matrix(-1.8730331,0,0,1.8730331,185.95061,-65.475803)"
     id="g4348"><circle
       style="opacity:1;fill:#ffffff;fill-opacity:1;stroke:none;stroke-width:2.0999999;stroke-linecap:round;stroke-linejoin:round;stroke-miterlimit:4;stroke-dasharray:none;stroke-dashoffset:0;stroke-opacity:1"
       id="circle4350"
       cx="26.682077"
       cy="75"
       r="3.2616465" /><circle
       r="3.2616465"
       cy="75"
       cx="40.453472"
       id="circle4352"
       style="opacity:1;fill:#ffffff;fill-opacity:1;stroke:none;stroke-width:2.0999999;stroke-linecap:round;stroke-linejoin:round;stroke-miterlimit:4;stroke-dasharray:none;stroke-dashoffset:0;stroke-opacity:1" /><circle
       style="opacity:1;fill:#ffffff;fill-opacity:1;stroke:none;stroke-width:2.0999999;stroke-linecap:round;stroke-linejoin:round;stroke-miterlimit:4;stroke-dasharray:none;stroke-dashoffset:0;stroke-opacity:1"
       id="circle4354"
       cx="54.224869"
       cy="75"
       r="3.2616465" /></g><path
     style="fill:#6c75ff;fill-opacity:1"
     d="M 43.822266 23.951172 C 39.604195 23.951172 36.183594 27.368026 36.183594 31.589844 L 36.183594 85.732422 C 36.183594 89.950492 39.604195 93.371094 43.822266 93.371094 L 53.734375 93.371094 L 50.054688 109.70898 L 73.960938 93.371094 L 135.52539 93.371094 C 139.74533 93.371094 143.16406 89.950492 143.16406 85.732422 L 143.16406 31.589844 C 143.16406 27.368026 139.74533 23.951172 135.52539 23.951172 L 43.822266 23.951172 z M 63.878906 52.550781 A 6.1091719 6.1091719 0 0 1 69.988281 58.660156 A 6.1091719 6.1091719 0 0 1 63.878906 64.769531 A 6.1091719 6.1091719 0 0 1 57.769531 58.660156 A 6.1091719 6.1091719 0 0 1 63.878906 52.550781 z M 89.673828 52.550781 A 6.1091719 6.1091719 0 0 1 95.783203 58.660156 A 6.1091719 6.1091719 0 0 1 89.673828 64.769531 A 6.1091719 6.1091719 0 0 1 83.564453 58.660156 A 6.1091719 6.1091719 0 0 1 89.673828 52.550781 z M 115.4668 52.550781 A 6.1091719 6.1091719 0 0 1 121.57617 58.660156 A 6.1091719 6.1091719 0 0 1 115.4668 64.769531 A 6.1091719 6.1091719 0 0 1 109.35938 58.660156 A 6.1091719 6.1091719 0 0 1 115.4668 52.550781 z "
     id="path4259" /></svg>